<svg width="60" height="16" viewBox="0 0 60 16" fill="none" xmlns="http://www.w3.org/2000/svg">
<path d="M0.636 13L1.344 4.54H3.456L5.424 10.204L7.392 4.54H9.456L10.248 13H8.4L7.896 7.228L5.916 13H4.692L2.712 7.24L2.268 13H0.636ZM14.6695 13.156C13.8695 13.156 13.2095 13.02 12.6895 12.748C12.1695 12.468 11.7775 12.072 11.5135 11.56C11.2575 11.04 11.1295 10.428 11.1295 9.724C11.1295 9.06 11.2575 8.476 11.5135 7.972C11.7695 7.468 12.1295 7.076 12.5935 6.796C13.0655 6.516 13.6095 6.376 14.2255 6.376C14.8175 6.376 15.3295 6.508 15.7615 6.772C16.2015 7.036 16.5295 7.448 16.7455 8.008C16.9615 8.56 17.0375 9.284 16.9735 10.18H11.7895V9.052H15.3775C15.3615 8.58 15.2615 8.22 15.0775 7.972C14.8935 7.724 14.6095 7.6 14.2255 7.6C13.7535 7.6 13.3935 7.776 13.1455 8.128C12.8975 8.472 12.7735 9.004 12.7735 9.724C12.7735 10.204 12.8415 10.604 12.9775 10.924C13.1215 11.236 13.3375 11.464 13.6255 11.608C13.9215 11.752 14.3015 11.824 14.7655 11.824C15.1655 11.824 15.5255 11.796 15.8455 11.74C16.1655 11.684 16.4695 11.596 16.7575 11.476L16.8295 11.5V12.808C16.5895 12.92 16.2855 13.004 15.9175 13.06C15.5495 13.124 15.1335 13.156 14.6695 13.156ZM22.4915 13L22.3235 12.184C22.0995 12.488 21.8275 12.728 21.5075 12.904C21.1955 13.072 20.8235 13.156 20.3915 13.156C19.5915 13.156 18.9435 12.872 18.4475 12.304C17.9595 11.736 17.7155 10.912 17.7155 9.832C17.7155 9.088 17.8315 8.46 18.0635 7.948C18.2955 7.436 18.6195 7.048 19.0355 6.784C19.4515 6.512 19.9355 6.376 20.4875 6.376C20.8555 6.376 21.1755 6.44 21.4475 6.568C21.7195 6.696 21.9555 6.868 22.1555 7.084V4.288L23.8715 3.964V13H22.4915ZM19.4435 9.832C19.4435 10.528 19.5755 11.032 19.8395 11.344C20.1035 11.648 20.4395 11.8 20.8475 11.8C21.1435 11.8 21.3955 11.756 21.6035 11.668C21.8115 11.572 21.9955 11.44 22.1555 11.272V8.152C21.9875 7.992 21.8035 7.872 21.6035 7.792C21.4035 7.712 21.1635 7.672 20.8835 7.672C20.4355 7.672 20.0835 7.852 19.8275 8.212C19.5715 8.572 19.4435 9.112 19.4435 9.832ZM26.1702 5.728C25.8662 5.728 25.6302 5.652 25.4622 5.5C25.3022 5.348 25.2222 5.128 25.2222 4.84C25.2222 4.552 25.3022 4.336 25.4622 4.192C25.6302 4.048 25.8662 3.976 26.1702 3.976C26.4742 3.976 26.7022 4.048 26.8542 4.192C27.0142 4.336 27.0942 4.552 27.0942 4.84C27.0942 5.128 27.0142 5.348 26.8542 5.5C26.7022 5.652 26.4742 5.728 26.1702 5.728ZM25.3182 13V6.52H27.0222V13H25.3182ZM30.5817 13.156C30.1577 13.156 29.7817 13.076 29.4537 12.916C29.1257 12.748 28.8697 12.5 28.6857 12.172C28.5017 11.844 28.4097 11.436 28.4097 10.948V6.52H30.1137V10.648C30.1137 10.936 30.1617 11.164 30.2577 11.332C30.3537 11.492 30.4817 11.608 30.6417 11.68C30.8097 11.752 30.9977 11.788 31.2057 11.788C31.4537 11.788 31.6857 11.756 31.9017 11.692C32.1177 11.62 32.3257 11.512 32.5257 11.368V6.52H34.2297V13H32.7297L32.6097 12.256C32.3777 12.496 32.0977 12.708 31.7697 12.892C31.4417 13.068 31.0457 13.156 30.5817 13.156ZM35.6416 13V6.52H37.1416L37.2496 7.276C37.4736 7.044 37.7376 6.836 38.0416 6.652C38.3456 6.468 38.7216 6.376 39.1696 6.376C39.5696 6.376 39.9176 6.456 40.2136 6.616C40.5176 6.776 40.7456 7.032 40.8976 7.384C41.1376 7.112 41.4216 6.876 41.7496 6.676C42.0776 6.476 42.4856 6.376 42.9736 6.376C43.3736 6.376 43.7216 6.456 44.0176 6.616C44.3136 6.768 44.5456 7.008 44.7136 7.336C44.8816 7.664 44.9656 8.08 44.9656 8.584V13H43.2496V8.86C43.2496 8.572 43.2056 8.348 43.1176 8.188C43.0376 8.02 42.9296 7.904 42.7936 7.84C42.6576 7.776 42.4976 7.744 42.3136 7.744C42.0736 7.744 41.8616 7.78 41.6776 7.852C41.5016 7.916 41.3256 8.016 41.1496 8.152V13H39.4456V8.86C39.4456 8.572 39.4056 8.348 39.3256 8.188C39.2456 8.02 39.1336 7.904 38.9896 7.84C38.8536 7.776 38.6936 7.744 38.5096 7.744C38.2696 7.744 38.0576 7.78 37.8736 7.852C37.6976 7.916 37.5216 8.016 37.3456 8.152V13H35.6416Z" fill="#BF4900"/>
<rect x="50" y="3" width="2" height="10" rx="1" fill="#BF4900"/>
<rect x="54" y="3" width="2" height="10" rx="1" fill="#BF4900"/>
<rect x="58" y="3" width="2" height="10" rx="1" fill="#B0B9C1"/>
</svg>
