<svg width="45" height="16" viewBox="0 0 45 16" fill="none" xmlns="http://www.w3.org/2000/svg">
<path d="M2.40334 13L0.267344 4.624V4.54H2.12734L3.55534 10.636L5.13934 4.54H6.71134L8.34334 10.648L9.73534 4.54H11.5113V4.624L9.33934 13H7.45534L5.87134 7.096L4.27534 13H2.40334ZM15.0484 13.156C14.2484 13.156 13.5884 13.02 13.0684 12.748C12.5484 12.468 12.1564 12.072 11.8924 11.56C11.6364 11.04 11.5084 10.428 11.5084 9.724C11.5084 9.06 11.6364 8.476 11.8924 7.972C12.1484 7.468 12.5084 7.076 12.9724 6.796C13.4444 6.516 13.9884 6.376 14.6044 6.376C15.1964 6.376 15.7084 6.508 16.1404 6.772C16.5804 7.036 16.9084 7.448 17.1244 8.008C17.3404 8.56 17.4164 9.284 17.3524 10.18H12.1684V9.052H15.7564C15.7404 8.58 15.6404 8.22 15.4564 7.972C15.2724 7.724 14.9884 7.6 14.6044 7.6C14.1324 7.6 13.7724 7.776 13.5244 8.128C13.2764 8.472 13.1524 9.004 13.1524 9.724C13.1524 10.204 13.2204 10.604 13.3564 10.924C13.5004 11.236 13.7164 11.464 14.0044 11.608C14.3004 11.752 14.6804 11.824 15.1444 11.824C15.5444 11.824 15.9044 11.796 16.2244 11.74C16.5444 11.684 16.8484 11.596 17.1364 11.476L17.2084 11.5V12.808C16.9684 12.92 16.6644 13.004 16.2964 13.06C15.9284 13.124 15.5124 13.156 15.0484 13.156ZM20.2424 13.156C19.8344 13.156 19.4664 13.084 19.1384 12.94C18.8104 12.788 18.5504 12.572 18.3584 12.292C18.1744 12.004 18.0824 11.652 18.0824 11.236C18.0824 10.78 18.1864 10.42 18.3944 10.156C18.6104 9.884 18.9104 9.676 19.2944 9.532C19.6864 9.388 20.1424 9.28 20.6624 9.208L22.3544 8.968V10.036L21.0344 10.228C20.5704 10.3 20.2384 10.404 20.0384 10.54C19.8464 10.668 19.7504 10.872 19.7504 11.152C19.7504 11.392 19.8264 11.588 19.9784 11.74C20.1304 11.884 20.3704 11.956 20.6984 11.956C20.9384 11.956 21.1464 11.92 21.3224 11.848C21.5064 11.776 21.6624 11.676 21.7904 11.548C21.9184 11.412 22.0184 11.268 22.0904 11.116L22.3064 11.8C22.2264 11.992 22.1024 12.196 21.9344 12.412C21.7744 12.62 21.5544 12.796 21.2744 12.94C21.0024 13.084 20.6584 13.156 20.2424 13.156ZM22.1624 13L21.9344 11.632V9.004C21.9344 8.516 21.8224 8.18 21.5984 7.996C21.3824 7.812 21.0384 7.72 20.5664 7.72C20.1824 7.72 19.8384 7.756 19.5344 7.828C19.2384 7.9 18.9464 7.992 18.6584 8.104L18.5864 8.08V6.772C18.8664 6.652 19.1904 6.556 19.5584 6.484C19.9264 6.412 20.3424 6.376 20.8064 6.376C21.7184 6.376 22.4184 6.576 22.9064 6.976C23.3944 7.368 23.6384 8.032 23.6384 8.968V13H22.1624ZM25.0049 13V4.288L26.7089 3.964V9.244L28.8929 6.52H30.6449V6.616L28.6289 9.088L30.8249 12.916V13H29.0009L27.3569 10.24L26.7089 11.032V13H25.0049Z" fill="#EB0F29"/>
<rect x="35" y="3" width="2" height="10" rx="1" fill="#EB0F29"/>
<rect x="39" y="3" width="2" height="10" rx="1" fill="#B0B9C1"/>
<rect x="43" y="3" width="2" height="10" rx="1" fill="#B0B9C1"/>
</svg>
