<svg width="52" height="16" viewBox="0 0 52 16" fill="none" xmlns="http://www.w3.org/2000/svg">
<path d="M3.75781 13.156C3.19781 13.156 2.70981 13.112 2.29381 13.024C1.87781 12.936 1.52581 12.824 1.23781 12.688V11.068L1.29781 11.044C1.63381 11.244 1.99381 11.4 2.37781 11.512C2.76981 11.616 3.20181 11.668 3.67381 11.668C4.11381 11.668 4.44581 11.58 4.66981 11.404C4.89381 11.22 5.00581 10.972 5.00581 10.66C5.00581 10.468 4.96581 10.312 4.88581 10.192C4.81381 10.072 4.68581 9.968 4.50181 9.88C4.32581 9.784 4.08581 9.68 3.78181 9.568L3.19381 9.376C2.56981 9.176 2.08181 8.88 1.72981 8.488C1.37781 8.088 1.20181 7.568 1.20181 6.928C1.20181 6.384 1.32181 5.924 1.56181 5.548C1.80181 5.172 2.13781 4.884 2.56981 4.684C3.00181 4.484 3.49781 4.384 4.05781 4.384C4.48981 4.384 4.88981 4.416 5.25781 4.48C5.62581 4.536 5.96181 4.616 6.26581 4.72V6.256L6.20581 6.28C5.88581 6.136 5.55381 6.028 5.20981 5.956C4.87381 5.884 4.50981 5.848 4.11781 5.848C3.70981 5.848 3.40581 5.932 3.20581 6.1C3.01381 6.268 2.91781 6.484 2.91781 6.748C2.91781 6.996 2.98981 7.2 3.13381 7.36C3.28581 7.512 3.54981 7.652 3.92581 7.78L4.50181 7.972C5.01381 8.132 5.44181 8.316 5.78581 8.524C6.12981 8.732 6.38581 8.996 6.55381 9.316C6.72181 9.636 6.80581 10.036 6.80581 10.516C6.80581 11.076 6.67781 11.552 6.42181 11.944C6.17381 12.336 5.82181 12.636 5.36581 12.844C4.91781 13.052 4.38181 13.156 3.75781 13.156ZM10.4331 13.12C10.0731 13.12 9.73709 13.068 9.42509 12.964C9.11309 12.86 8.86109 12.688 8.66909 12.448C8.48509 12.2 8.39309 11.864 8.39309 11.44V7.78H7.44509V6.52H8.39309V5.428L10.0971 5.152V6.52H11.6451V7.78H10.0971V11.14C10.0971 11.388 10.1691 11.564 10.3131 11.668C10.4571 11.764 10.6651 11.812 10.9371 11.812C11.0731 11.812 11.2011 11.804 11.3211 11.788C11.4411 11.772 11.5451 11.752 11.6331 11.728L11.7051 11.764V12.988C11.5451 13.036 11.3571 13.068 11.1411 13.084C10.9331 13.108 10.6971 13.12 10.4331 13.12ZM12.8213 13V6.52H14.3213L14.4413 7.552C14.5613 7.352 14.7133 7.168 14.8973 7C15.0893 6.824 15.3093 6.684 15.5573 6.58C15.8133 6.476 16.0893 6.424 16.3853 6.424C16.4893 6.424 16.5853 6.428 16.6733 6.436C16.7693 6.436 16.8533 6.444 16.9253 6.46V8.044L16.8533 8.08C16.7813 8.064 16.6973 8.052 16.6013 8.044C16.5133 8.036 16.4173 8.032 16.3133 8.032C15.9133 8.032 15.5653 8.084 15.2693 8.188C14.9813 8.284 14.7333 8.452 14.5253 8.692V13H12.8213ZM20.6698 13.156C20.0458 13.156 19.4898 13.016 19.0018 12.736C18.5218 12.456 18.1418 12.064 17.8618 11.56C17.5898 11.048 17.4538 10.444 17.4538 9.748C17.4538 9.052 17.5898 8.452 17.8618 7.948C18.1418 7.444 18.5218 7.056 19.0018 6.784C19.4898 6.512 20.0458 6.376 20.6698 6.376C21.3018 6.376 21.8578 6.512 22.3378 6.784C22.8258 7.056 23.2098 7.444 23.4898 7.948C23.7698 8.452 23.9098 9.052 23.9098 9.748C23.9098 10.444 23.7698 11.048 23.4898 11.56C23.2098 12.064 22.8258 12.456 22.3378 12.736C21.8578 13.016 21.3018 13.156 20.6698 13.156ZM20.6698 11.86C21.1498 11.86 21.5218 11.68 21.7858 11.32C22.0498 10.96 22.1818 10.44 22.1818 9.76C22.1818 9.072 22.0498 8.552 21.7858 8.2C21.5218 7.84 21.1498 7.66 20.6698 7.66C20.1978 7.66 19.8298 7.84 19.5658 8.2C19.3018 8.552 19.1698 9.072 19.1698 9.76C19.1698 10.44 19.3018 10.96 19.5658 11.32C19.8298 11.68 20.1978 11.86 20.6698 11.86ZM24.9619 13V6.52H26.4619L26.5699 7.3C26.7299 7.14 26.9059 6.992 27.0979 6.856C27.2899 6.712 27.5099 6.596 27.7579 6.508C28.0059 6.42 28.2899 6.376 28.6099 6.376C29.0259 6.376 29.3899 6.456 29.7019 6.616C30.0219 6.768 30.2659 7.008 30.4339 7.336C30.6099 7.664 30.6979 8.08 30.6979 8.584V13H28.9939V8.872C28.9939 8.584 28.9459 8.36 28.8499 8.2C28.7539 8.032 28.6259 7.916 28.4659 7.852C28.3139 7.78 28.1379 7.744 27.9379 7.744C27.6899 7.744 27.4619 7.78 27.2539 7.852C27.0539 7.924 26.8579 8.032 26.6659 8.176V13H24.9619ZM36.0712 7.684L35.3632 6.7L37.8352 6.448V7.684H36.0712ZM34.5112 9.736C34.7272 9.736 34.9192 9.692 35.0872 9.604C35.2632 9.508 35.3992 9.376 35.4952 9.208C35.5992 9.04 35.6512 8.84 35.6512 8.608C35.6512 8.368 35.5992 8.164 35.4952 7.996C35.3992 7.828 35.2632 7.7 35.0872 7.612C34.9192 7.524 34.7272 7.48 34.5112 7.48C34.1912 7.48 33.9232 7.58 33.7072 7.78C33.4912 7.972 33.3832 8.248 33.3832 8.608C33.3832 8.84 33.4312 9.04 33.5272 9.208C33.6232 9.376 33.7592 9.508 33.9352 9.604C34.1112 9.692 34.3032 9.736 34.5112 9.736ZM34.4992 10.744C33.9872 10.744 33.5272 10.656 33.1192 10.48C32.7192 10.304 32.4032 10.056 32.1712 9.736C31.9392 9.408 31.8232 9.028 31.8232 8.596C31.8232 8.156 31.9352 7.772 32.1592 7.444C32.3832 7.116 32.6952 6.86 33.0952 6.676C33.5032 6.484 33.9712 6.388 34.4992 6.388C34.8352 6.388 35.1512 6.428 35.4472 6.508C35.7512 6.588 36.0072 6.7 36.2152 6.844L36.5872 7.336C36.7472 7.464 36.8872 7.648 37.0072 7.888C37.1272 8.12 37.1872 8.384 37.1872 8.68C37.1872 9.08 37.0752 9.436 36.8512 9.748C36.6272 10.06 36.3152 10.304 35.9152 10.48C35.5152 10.656 35.0432 10.744 34.4992 10.744ZM34.5232 15.664C33.5312 15.664 32.7872 15.528 32.2912 15.256C31.8032 14.992 31.5592 14.588 31.5592 14.044C31.5592 13.692 31.6792 13.392 31.9192 13.144C32.1592 12.896 32.5192 12.672 32.9992 12.472L33.6952 12.76C33.4712 12.904 33.3072 13.056 33.2032 13.216C33.0992 13.384 33.0472 13.56 33.0472 13.744C33.0472 14 33.1632 14.192 33.3952 14.32C33.6272 14.456 34.0032 14.524 34.5232 14.524C35.0992 14.524 35.5272 14.428 35.8072 14.236C36.0952 14.052 36.2392 13.828 36.2392 13.564C36.2392 13.364 36.1792 13.228 36.0592 13.156C35.9472 13.084 35.7552 13.044 35.4832 13.036L33.6472 12.964C33.2712 12.948 32.9592 12.884 32.7112 12.772C32.4632 12.652 32.2792 12.496 32.1592 12.304C32.0472 12.112 31.9912 11.904 31.9912 11.68C31.9912 11.328 32.1072 11.028 32.3392 10.78C32.5792 10.524 32.9032 10.336 33.3112 10.216L34.0672 10.588C33.8352 10.668 33.6632 10.76 33.5512 10.864C33.4472 10.96 33.3952 11.072 33.3952 11.2C33.3952 11.328 33.4392 11.416 33.5272 11.464C33.6232 11.504 33.7672 11.528 33.9592 11.536L35.8312 11.62C36.4712 11.644 36.9712 11.792 37.3312 12.064C37.6912 12.336 37.8712 12.788 37.8712 13.42C37.8712 14.092 37.5832 14.632 37.0072 15.04C36.4312 15.456 35.6032 15.664 34.5232 15.664Z" fill="#008751"/>
<rect x="42" y="3" width="2" height="10" rx="1" fill="#008751"/>
<rect x="46" y="3" width="2" height="10" rx="1" fill="#008751"/>
<rect x="50" y="3" width="2" height="10" rx="1" fill="#008751"/>
</svg>
